<svg viewBox="0 0 1024 1024" width="32" height="32" xmlns="http://www.w3.org/2000/svg">
  <path d="M413.866667 354.133333c-17.066667-17.066667-42.666667-17.066667-59.733334 0l-85.333333 85.333334c-17.066667 17.066667-17.066667 42.666667 0 59.733333l85.333333 85.333333c8.533333 8.533333 17.066667 12.8 29.866667 12.8 12.8 0 21.333333-4.266667 29.866667-12.8 17.066667-17.066667 17.066667-42.666667 0-59.733333L358.4 469.333333l55.466667-55.466666c17.066667-17.066667 17.066667-42.666667 0-59.733334zM669.866667 439.466667l-85.333334-85.333334c-17.066667-17.066667-42.666667-17.066667-59.733333 0-17.066667 17.066667-17.066667 42.666667 0 59.733334l55.466667 55.466666-55.466667 55.466667c-17.066667 17.066667-17.066667 42.666667 0 59.733333 8.533333 8.533333 21.333333 12.8 29.866667 12.8 8.533333 0 21.333333-4.266667 29.866666-12.8l85.333334-85.333333c17.066667-17.066667 17.066667-42.666667 0-59.733333z" fill="currentColor"></path>
  <path d="M925.866667 866.133333L768 708.266667c51.2-64 85.333333-149.333333 85.333333-238.933334 0-213.333333-170.666667-384-384-384s-384 170.666667-384 384 170.666667 384 384 384c89.6 0 174.933333-29.866667 238.933334-85.333333l157.866666 157.866667c8.533333 8.533333 21.333333 12.8 29.866667 12.8 8.533333 0 21.333333-4.266667 29.866667-12.8 17.066667-17.066667 17.066667-42.666667 0-59.733334zM170.666667 469.333333c0-166.4 132.266667-298.666667 298.666666-298.666666s298.666667 132.266667 298.666667 298.666666-132.266667 298.666667-298.666667 298.666667-298.666667-132.266667-298.666666-298.666667z" fill="currentColor"></path>
</svg>
