<?xml version="1.0" encoding="UTF-8"?>
<svg width="16" height="16" viewBox="0 0 16 16" xmlns="http://www.w3.org/2000/svg">
    <path d="M.5 3l.04.87a1.99 1.99 0 0 0-.342 1.311l.637 7A2 2 0 0 0 2.826 14H9v-1H2.826a1 1 0 0 1-.995-.91l-.637-7A1 1 0 0 1 2.19 4h11.62a1 1 0 0 1 .996 1.09L14.54 8h1.005l.256-2.819A2 2 0 0 0 13.81 3H9.828a2 2 0 0 1-1.414-.586l-.828-.828A2 2 0 0 0 6.172 1H2.5a2 2 0 0 0-2 2v.5a.5.5 0 0 0 .5.5z" fill="#C5C5C5"/>
    <path d="M16 12.5a3.5 3.5 0 1 1-7 0 3.5 3.5 0 0 1 7 0zm-3.5-2a.5.5 0 0 0-.5.5v1h-1a.5.5 0 0 0 0 1h1v1a.5.5 0 0 0 1 0v-1h1a.5.5 0 0 0 0-1h-1v-1a.5.5 0 0 0-.5-.5z" fill="#C5C5C5"/>
</svg> 