<?xml version="1.0" encoding="UTF-8"?>
<svg width="16" height="16" viewBox="0 0 1024 1024" xmlns="http://www.w3.org/2000/svg">
    <path d="M771.877087 788.541659a39.384386 39.384386 0 0 0 32.531218-45.213844l-14.246626-87.384994 222.372488-227.917583a39.355949 39.355949 0 0 0-22.265685-66.427382l-305.69108-46.692536-137.06335-292.041618a39.384386 39.384386 0 0 0-71.31844 0l-137.063349 292.041618-305.691081 46.692536a39.355949 39.355949 0 0 0-22.237248 66.427382l222.372488 227.917583-52.607302 322.269489a39.384386 39.384386 0 0 0 57.924905 40.806205L511.854832 868.078212l96.797436 53.48883a39.384386 39.384386 0 1 0 38.104749-68.929784l-115.84981-64.01029a39.327513 39.327513 0 0 0-38.104749 0l-221.035978 122.191123 42.711442-261.899056a39.384386 39.384386 0 0 0-10.663643-33.839292L121.053668 427.883056l250.751995-38.303803c12.966989-1.990547 24.11405-10.322406 29.68758-22.208812L511.854832 132.230018l110.333153 235.140423c5.601967 11.85797 16.749028 20.189829 29.716017 22.180376l250.723558 38.303803-182.703738 187.310432a39.412822 39.412822 0 0 0-10.692079 33.839292l17.459937 107.006096a39.384386 39.384386 0 0 0 45.213843 32.531219z m212.448192 58.180832h-59.062361v-59.06236a39.384386 39.384386 0 0 0-78.740335 0v59.06236h-59.06236a39.384386 39.384386 0 0 0 0 78.768772h59.06236v59.033924a39.384386 39.384386 0 0 0 78.768772 0V925.519699h59.033924a39.384386 39.384386 0 0 0 0-78.768771z" fill="#C5C5C5"/>
</svg> 